<svg width="502" height="502" viewBox="0 0 502 502" fill="none" xmlns="http://www.w3.org/2000/svg">
<path d="M250.696 122.182C179.572 122.182 122.203 179.594 122.203 250.771C122.203 321.949 179.572 379.361 250.696 379.361C321.82 379.361 379.189 321.949 379.189 250.771C379.189 179.594 321.82 122.182 250.696 122.182ZM250.696 334.371C204.733 334.371 167.158 296.88 167.158 250.771C167.158 204.663 204.622 167.172 250.696 167.172C296.77 167.172 334.233 204.663 334.233 250.771C334.233 296.88 296.658 334.371 250.696 334.371V334.371ZM414.415 116.922C414.415 133.597 400.996 146.915 384.445 146.915C367.782 146.915 354.474 133.485 354.474 116.922C354.474 100.359 367.894 86.9292 384.445 86.9292C400.996 86.9292 414.415 100.359 414.415 116.922ZM499.518 147.363C497.617 107.186 488.447 71.597 459.036 42.2755C429.736 12.954 394.174 3.7771 354.027 1.76265C312.65 -0.587549 188.63 -0.587549 147.253 1.76265C107.217 3.66519 71.6553 12.8421 42.2439 42.1636C12.8325 71.4851 3.77427 107.074 1.76133 147.251C-0.587109 188.659 -0.587109 312.772 1.76133 354.18C3.66244 394.357 12.8325 429.946 42.2439 459.267C71.6553 488.589 107.106 497.766 147.253 499.78C188.63 502.13 312.65 502.13 354.027 499.78C394.174 497.878 429.736 488.701 459.036 459.267C488.335 429.946 497.505 394.357 499.518 354.18C501.867 312.772 501.867 188.771 499.518 147.363V147.363ZM446.063 398.61C437.341 420.545 420.454 437.444 398.424 446.285C365.434 459.379 287.152 456.358 250.696 456.358C214.239 456.358 135.846 459.267 102.968 446.285C81.049 437.556 64.1627 420.657 55.3281 398.61C42.2439 365.595 45.2633 287.255 45.2633 250.771C45.2633 214.287 42.3557 135.836 55.3281 102.933C64.0508 80.9978 80.9372 64.0988 102.968 55.2576C135.958 42.1636 214.239 45.1853 250.696 45.1853C287.152 45.1853 365.545 42.2755 398.424 55.2576C420.342 63.9869 437.229 80.8859 446.063 102.933C459.147 135.948 456.128 214.287 456.128 250.771C456.128 287.255 459.147 365.707 446.063 398.61Z" fill="#F9F9F9"/>
</svg>
