<svg width="464" height="377" viewBox="0 0 464 377" fill="none" xmlns="http://www.w3.org/2000/svg">
<path d="M416.304 93.9183C416.599 98.0399 416.599 102.162 416.599 106.284C416.599 231.999 320.914 376.852 146.03 376.852C92.152 376.852 42.1017 361.248 0 334.162C7.65509 335.045 15.0147 335.34 22.9644 335.34C67.4205 335.34 108.345 320.325 141.025 294.711C99.2181 293.827 64.1824 266.447 52.1112 228.761C58 229.644 63.8879 230.233 70.0712 230.233C78.609 230.233 87.1477 229.055 95.0964 226.995C51.523 218.162 18.8418 179.888 18.8418 133.665V132.487C31.5013 139.553 46.2233 143.97 61.8262 144.558C36.2119 127.481 19.4309 98.3345 19.4309 65.3597C19.4309 47.695 24.1407 31.5022 32.3848 17.3701C79.1972 75.0756 149.563 112.76 228.466 116.883C226.994 109.817 226.11 102.457 226.11 95.0964C226.11 42.6898 268.506 0 321.207 0C348.587 0 373.318 11.4822 390.689 30.0304C412.181 25.9088 432.79 17.9592 451.044 7.06603C443.977 29.1477 428.963 47.6959 409.237 59.4718C428.374 57.4118 446.923 52.1112 463.998 44.7515C451.046 63.5934 434.852 80.3744 416.304 93.9183V93.9183Z" fill="#F9F9F9"/>
</svg>
