<svg width="501" height="352" viewBox="0 0 501 352" fill="none" xmlns="http://www.w3.org/2000/svg">
<path d="M490.162 55.037C484.404 33.3732 467.44 16.3115 445.902 10.5214C406.861 0 250.311 0 250.311 0C250.311 0 93.7631 0 54.7213 10.5214C33.1824 16.3124 16.2186 33.3732 10.461 55.037C0 94.3038 0 176.23 0 176.23C0 176.23 0 258.157 10.461 297.424C16.2186 319.088 33.1824 335.439 54.7213 341.229C93.7631 351.75 250.311 351.75 250.311 351.75C250.311 351.75 406.86 351.75 445.902 341.229C467.44 335.439 484.404 319.088 490.162 297.424C500.623 258.157 500.623 176.23 500.623 176.23C500.623 176.23 500.623 94.3038 490.162 55.037ZM199.111 250.614V101.847L329.955 176.232L199.111 250.614Z" fill="#F9F9F9"/>
</svg>
